

<svg version="1.1" id="Layer_1" xmlns="http://www.w3.org/2000/svg" xmlns:xlink="http://www.w3.org/1999/xlink" x="0px" y="0px"
	 width="100%" viewBox="0 0 240 240" enable-background="new 0 0 240 240" xml:space="preserve">
<path fill="#000000" opacity="1.000000" stroke="none" 
	d="
M81.323967,216.263641 
	C79.961884,218.589676 78.902313,220.681473 77.569923,222.582016 
	C75.549591,225.463837 72.737663,226.142715 69.712791,224.387192 
	C66.878540,222.742325 65.864265,219.914078 67.436470,217.085464 
	C73.333244,206.476379 79.391022,195.953049 85.600586,185.523880 
	C87.351662,182.582901 90.365685,181.768127 93.394905,183.715485 
	C96.659813,185.814362 96.725868,188.947998 95.007858,192.053818 
	C90.580368,200.057907 86.014755,207.985565 81.323967,216.263641 
z"/>
<path fill="#000000" opacity="1.000000" stroke="none" 
	d="
M183.268188,87.550201 
	C193.986221,81.163979 204.418671,75.028091 214.885803,68.951965 
	C218.028702,67.127548 221.070160,67.238373 223.114319,70.556046 
	C225.268585,74.052444 224.060486,77.053024 220.727173,78.998100 
	C210.843750,84.765366 200.884018,90.402390 190.929703,96.047295 
	C188.402161,97.480614 185.765457,97.654434 183.582184,95.475655 
	C181.293655,93.191833 181.097382,90.535103 183.268188,87.550201 
z"/>
<path fill="#000000" opacity="1.000000" stroke="none" 
	d="
M28.168447,182.445541 
	C27.179169,178.612823 28.688736,176.315353 31.602638,174.658340 
	C41.138515,169.235703 50.657104,163.782669 60.196018,158.365402 
	C62.604206,156.997757 65.087601,156.185898 67.690895,157.953461 
	C71.159790,160.308746 71.275620,165.171753 67.414284,167.493469 
	C57.162571,173.657516 46.740513,179.543625 36.294609,185.376221 
	C32.998245,187.216782 30.193743,186.128387 28.168447,182.445541 
z"/>
<path fill="#000000" opacity="1.000000" stroke="none" 
	d="
M221.201981,185.455078 
	C218.457626,186.726837 216.349533,185.929230 214.255463,184.724792 
	C204.766357,179.266907 195.246689,173.862106 185.769302,168.384033 
	C182.566452,166.532730 180.572678,163.823380 182.505142,160.157684 
	C184.538864,156.299957 187.906509,156.214508 191.446701,158.220108 
	C201.115387,163.697693 210.826782,169.103424 220.408218,174.730057 
	C225.145447,177.511963 225.366394,180.849945 221.201981,185.455078 
z"/>
<path fill="#000000" opacity="1.000000" stroke="none" 
	d="
M36.142616,68.536430 
	C46.305626,74.295349 56.116703,79.891808 65.921486,85.499275 
	C69.286903,87.423988 71.635307,90.030396 69.425468,93.996193 
	C67.283875,97.839523 63.868965,97.713020 60.389904,95.721306 
	C50.731457,90.191971 41.055130,84.692032 31.467554,79.041870 
	C28.705921,77.414383 26.881496,74.937477 28.451815,71.529358 
	C29.884127,68.420761 32.330303,67.069916 36.142616,68.536430 
z"/>
<path fill="#000000" opacity="1.000000" stroke="none" 
	d="
M173.149109,196.889969 
	C176.794205,203.249680 180.263229,209.289948 183.733093,215.329758 
	C185.705841,218.763596 186.108917,222.116150 182.193298,224.338226 
	C178.286835,226.555115 175.538651,224.459824 173.591904,221.083221 
	C168.041702,211.456451 162.527008,201.808899 157.058884,192.135300 
	C155.162964,188.781235 155.374527,185.593307 158.968597,183.574051 
	C162.387650,181.653152 165.083359,183.263550 166.959549,186.254501 
	C169.073502,189.624527 170.977859,193.126022 173.149109,196.889969 
z"/>
<path fill="#000000" opacity="1.000000" stroke="none" 
	d="
M83.665817,65.292007 
	C78.530540,56.338146 73.613068,47.687107 68.594193,39.095299 
	C66.615410,35.707817 65.927002,32.543217 69.600136,29.928471 
	C72.586418,27.802670 76.011467,28.988258 78.565544,33.318733 
	C83.703514,42.030258 88.628098,50.867599 93.643311,59.651562 
	C96.799362,65.179253 96.708183,68.584198 93.035759,70.418999 
	C87.943954,72.962944 85.894012,69.173241 83.665817,65.292007 
z"/>
<path fill="#000000" opacity="1.000000" stroke="none" 
	d="
M210.586426,132.486328 
	C206.133774,132.446960 202.148956,132.382996 198.165161,132.421738 
	C194.310120,132.459198 191.371246,130.978195 191.381485,126.879066 
	C191.391129,123.015221 194.293549,121.616234 197.891708,121.615372 
	C209.346832,121.612633 220.802002,121.626213 232.257080,121.603836 
	C235.774841,121.596970 238.274490,123.300354 238.485260,126.697899 
	C238.696121,130.096573 236.407990,132.218201 232.934464,132.526352 
	C225.645630,133.173035 218.347580,133.059799 210.586426,132.486328 
z"/>
<path fill="#000000" opacity="1.000000" stroke="none" 
	d="
M33.148994,132.870789 
	C28.528814,132.748215 24.379173,132.569717 20.227991,132.520065 
	C16.558531,132.476151 13.935627,131.043701 13.826178,127.134331 
	C13.714910,123.160034 16.299538,121.618088 19.991108,121.617996 
	C31.462187,121.617722 42.933266,121.635826 54.404346,121.633873 
	C58.173313,121.633232 60.698704,123.493973 60.654308,127.210625 
	C60.612480,130.712250 58.027714,132.323746 54.550381,132.394424 
	C47.572861,132.536255 40.596001,132.710220 33.148994,132.870789 
z"/>
<path fill="#000000" opacity="1.000000" stroke="none" 
	d="
M120.591141,204.076813 
	C120.621056,201.597168 120.546021,199.595947 120.703125,197.613083 
	C120.962379,194.340775 122.791893,192.168930 126.093025,192.278473 
	C129.309097,192.385208 131.242874,194.492844 131.303879,197.824905 
	C131.446640,205.622620 131.524643,213.422089 131.552948,221.221115 
	C131.568008,225.372742 131.443161,229.525375 131.347900,233.676788 
	C131.265457,237.269196 129.336151,239.410614 125.814743,239.379013 
	C122.216400,239.346695 120.523338,236.953445 120.518913,233.470367 
	C120.506668,223.834778 120.561920,214.199112 120.591141,204.076813 
z"/>
</svg>