<svg width="118" height="141" viewBox="0 0 118 141" fill="none" xmlns="http://www.w3.org/2000/svg">
<path d="M19.28 124.48H8.32L6.44 131H0.8L7.64 108.68C8.12 107.08 8.62667 105.84 9.16 104.96C9.69333 104.08 10.32 103.453 11.04 103.08C11.7867 102.707 12.7067 102.52 13.8 102.52C14.8933 102.52 15.8 102.707 16.52 103.08C17.24 103.453 17.8667 104.08 18.4 104.96C18.96 105.84 19.48 107.08 19.96 108.68L26.8 131H21.16L19.28 124.48ZM18.04 120.28L14.68 108.76C14.4933 108.067 14.2 107.72 13.8 107.72C13.4 107.72 13.1067 108.067 12.92 108.76L9.56 120.28H18.04ZM41.1466 111.72C42.9066 111.72 44.3999 112.147 45.6266 113C46.8799 113.827 47.8132 114.947 48.4266 116.36C49.0399 117.747 49.3466 119.28 49.3466 120.96V122.24C49.3466 123.92 49.0399 125.467 48.4266 126.88C47.8132 128.267 46.8799 129.387 45.6266 130.24C44.3999 131.067 42.9066 131.48 41.1466 131.48C39.6266 131.48 38.4266 131.28 37.5466 130.88C36.6932 130.453 35.9599 129.84 35.3466 129.04V139.76H30.1466V118C30.1466 117.28 29.9999 116.693 29.7066 116.24C29.4399 115.787 28.9466 115.293 28.2266 114.76L31.7066 111.72C32.5866 112.173 33.2799 112.653 33.7866 113.16C34.3199 113.667 34.7066 114.267 34.9466 114.96C36.3066 112.8 38.3732 111.72 41.1466 111.72ZM44.1466 120.96C44.1466 119.52 43.7466 118.293 42.9466 117.28C42.1732 116.24 41.0666 115.72 39.6266 115.72C37.3866 115.72 35.9599 116.813 35.3466 119V124.2C35.9599 126.387 37.3866 127.48 39.6266 127.48C41.0932 127.48 42.2132 126.973 42.9866 125.96C43.7599 124.947 44.1466 123.707 44.1466 122.24V120.96ZM61.3775 131.48C58.6042 131.48 56.4708 130.84 54.9775 129.56C53.4842 128.28 52.7375 126.453 52.7375 124.08V119.12C52.7375 116.747 53.4842 114.92 54.9775 113.64C56.4708 112.36 58.6042 111.72 61.3775 111.72C64.1508 111.72 66.2842 112.36 67.7775 113.64C69.2708 114.92 70.0175 116.747 70.0175 119.12V124.08C70.0175 126.453 69.2708 128.28 67.7775 129.56C66.2842 130.84 64.1508 131.48 61.3775 131.48ZM61.3775 127.48C62.4708 127.48 63.3108 127.187 63.8975 126.6C64.5108 126.013 64.8175 125.173 64.8175 124.08V119.12C64.8175 118.027 64.5108 117.187 63.8975 116.6C63.3108 116.013 62.4708 115.72 61.3775 115.72C60.2842 115.72 59.4308 116.013 58.8175 116.6C58.2308 117.187 57.9375 118.027 57.9375 119.12V124.08C57.9375 125.173 58.2308 126.013 58.8175 126.6C59.4308 127.187 60.2842 127.48 61.3775 127.48ZM85.5606 111.72C87.3206 111.72 88.814 112.147 90.0406 113C91.294 113.827 92.2273 114.947 92.8406 116.36C93.454 117.747 93.7606 119.28 93.7606 120.96V122.24C93.7606 123.92 93.454 125.467 92.8406 126.88C92.2273 128.267 91.294 129.387 90.0406 130.24C88.814 131.067 87.3206 131.48 85.5606 131.48C84.0406 131.48 82.8406 131.28 81.9606 130.88C81.1073 130.453 80.374 129.84 79.7606 129.04V139.76H74.5606V118C74.5606 117.28 74.414 116.693 74.1206 116.24C73.854 115.787 73.3606 115.293 72.6406 114.76L76.1206 111.72C77.0006 112.173 77.694 112.653 78.2006 113.16C78.734 113.667 79.1206 114.267 79.3606 114.96C80.7206 112.8 82.7873 111.72 85.5606 111.72ZM88.5606 120.96C88.5606 119.52 88.1606 118.293 87.3606 117.28C86.5873 116.24 85.4806 115.72 84.0406 115.72C81.8006 115.72 80.374 116.813 79.7606 119V124.2C80.374 126.387 81.8006 127.48 84.0406 127.48C85.5073 127.48 86.6273 126.973 87.4006 125.96C88.174 124.947 88.5606 123.707 88.5606 122.24V120.96ZM115.201 112.2V132.76C115.201 135.373 114.481 137.267 113.041 138.44C111.628 139.613 109.321 140.2 106.121 140.2H100.841V136.2H106.121C107.481 136.2 108.468 135.933 109.081 135.4C109.694 134.867 110.001 133.987 110.001 132.76V128.48C108.774 130.427 106.868 131.4 104.281 131.4C102.174 131.4 100.548 130.84 99.4009 129.72C98.2543 128.6 97.6809 127 97.6809 124.92V118C97.6809 117.28 97.5343 116.693 97.2409 116.24C96.9743 115.787 96.4809 115.293 95.7609 114.76L99.2409 111.72C100.601 112.413 101.548 113.213 102.081 114.12C102.614 115 102.881 116.24 102.881 117.84V124.44C102.881 125.347 103.134 126.067 103.641 126.6C104.174 127.133 104.894 127.4 105.801 127.4C107.028 127.4 107.948 127 108.561 126.2C109.201 125.4 109.681 124.347 110.001 123.04V112.2H115.201Z" fill="#012E40"/>
<path d="M43.3358 58.4612H74.9841L83.6155 70.7689H34.3848L43.3358 58.4612Z" fill="#012E40"/>
<path d="M97.4179 61.9822L84.6824 70.619L48.6229 19.1841L59.4585 0.296197L97.4179 61.9822Z" fill="#012E40"/>
<path d="M33.4878 69.7243L20.4597 61.6806L48.1812 20.5668L58.1924 34.9853L33.4878 69.7243Z" fill="#012E40"/>
<path d="M39.0231 76.8316L19.0927 63.3862L20.5424 61.3799L44.9644 76.8144L39.0231 76.8316Z" fill="#012E40"/>
<path d="M98.5591 63.7078L78.7818 77.12L72.9387 77.0122L97.1375 61.6801L98.5591 63.7078Z" fill="#012E40"/>
</svg>
