<svg width="116" height="39" viewBox="0 0 116 39" fill="none" xmlns="http://www.w3.org/2000/svg">
<path d="M19.28 22.48H8.32L6.44 29H0.8L7.64 6.68C8.12 5.08 8.62667 3.84 9.16 2.96C9.69333 2.08 10.32 1.45333 11.04 1.08C11.7867 0.706666 12.7067 0.52 13.8 0.52C14.8933 0.52 15.8 0.706666 16.52 1.08C17.24 1.45333 17.8667 2.08 18.4 2.96C18.96 3.84 19.48 5.08 19.96 6.68L26.8 29H21.16L19.28 22.48ZM18.04 18.28L14.68 6.76C14.4933 6.06667 14.2 5.72 13.8 5.72C13.4 5.72 13.1067 6.06667 12.92 6.76L9.56 18.28H18.04ZM41.1466 9.72C42.9066 9.72 44.3999 10.1467 45.6266 11C46.8799 11.8267 47.8132 12.9467 48.4266 14.36C49.0399 15.7467 49.3466 17.28 49.3466 18.96V20.24C49.3466 21.92 49.0399 23.4667 48.4266 24.88C47.8132 26.2667 46.8799 27.3867 45.6266 28.24C44.3999 29.0667 42.9066 29.48 41.1466 29.48C39.6266 29.48 38.4266 29.28 37.5466 28.88C36.6932 28.4533 35.9599 27.84 35.3466 27.04V37.76H30.1466V16C30.1466 15.28 29.9999 14.6933 29.7066 14.24C29.4399 13.7867 28.9466 13.2933 28.2266 12.76L31.7066 9.72C32.5866 10.1733 33.2799 10.6533 33.7866 11.16C34.3199 11.6667 34.7066 12.2667 34.9466 12.96C36.3066 10.8 38.3732 9.72 41.1466 9.72ZM44.1466 18.96C44.1466 17.52 43.7466 16.2933 42.9466 15.28C42.1732 14.24 41.0666 13.72 39.6266 13.72C37.3866 13.72 35.9599 14.8133 35.3466 17V22.2C35.9599 24.3867 37.3866 25.48 39.6266 25.48C41.0932 25.48 42.2132 24.9733 42.9866 23.96C43.7599 22.9467 44.1466 21.7067 44.1466 20.24V18.96ZM61.3775 29.48C58.6042 29.48 56.4708 28.84 54.9775 27.56C53.4842 26.28 52.7375 24.4533 52.7375 22.08V17.12C52.7375 14.7467 53.4842 12.92 54.9775 11.64C56.4708 10.36 58.6042 9.72 61.3775 9.72C64.1508 9.72 66.2842 10.36 67.7775 11.64C69.2708 12.92 70.0175 14.7467 70.0175 17.12V22.08C70.0175 24.4533 69.2708 26.28 67.7775 27.56C66.2842 28.84 64.1508 29.48 61.3775 29.48ZM61.3775 25.48C62.4708 25.48 63.3108 25.1867 63.8975 24.6C64.5108 24.0133 64.8175 23.1733 64.8175 22.08V17.12C64.8175 16.0267 64.5108 15.1867 63.8975 14.6C63.3108 14.0133 62.4708 13.72 61.3775 13.72C60.2842 13.72 59.4308 14.0133 58.8175 14.6C58.2308 15.1867 57.9375 16.0267 57.9375 17.12V22.08C57.9375 23.1733 58.2308 24.0133 58.8175 24.6C59.4308 25.1867 60.2842 25.48 61.3775 25.48ZM85.5606 9.72C87.3206 9.72 88.814 10.1467 90.0406 11C91.294 11.8267 92.2273 12.9467 92.8406 14.36C93.454 15.7467 93.7606 17.28 93.7606 18.96V20.24C93.7606 21.92 93.454 23.4667 92.8406 24.88C92.2273 26.2667 91.294 27.3867 90.0406 28.24C88.814 29.0667 87.3206 29.48 85.5606 29.48C84.0406 29.48 82.8406 29.28 81.9606 28.88C81.1073 28.4533 80.374 27.84 79.7606 27.04V37.76H74.5606V16C74.5606 15.28 74.414 14.6933 74.1206 14.24C73.854 13.7867 73.3606 13.2933 72.6406 12.76L76.1206 9.72C77.0006 10.1733 77.694 10.6533 78.2006 11.16C78.734 11.6667 79.1206 12.2667 79.3606 12.96C80.7206 10.8 82.7873 9.72 85.5606 9.72ZM88.5606 18.96C88.5606 17.52 88.1606 16.2933 87.3606 15.28C86.5873 14.24 85.4806 13.72 84.0406 13.72C81.8006 13.72 80.374 14.8133 79.7606 17V22.2C80.374 24.3867 81.8006 25.48 84.0406 25.48C85.5073 25.48 86.6273 24.9733 87.4006 23.96C88.174 22.9467 88.5606 21.7067 88.5606 20.24V18.96ZM115.201 10.2V30.76C115.201 33.3733 114.481 35.2667 113.041 36.44C111.628 37.6133 109.321 38.2 106.121 38.2H100.841V34.2H106.121C107.481 34.2 108.468 33.9333 109.081 33.4C109.694 32.8667 110.001 31.9867 110.001 30.76V26.48C108.774 28.4267 106.868 29.4 104.281 29.4C102.174 29.4 100.548 28.84 99.4009 27.72C98.2543 26.6 97.6809 25 97.6809 22.92V16C97.6809 15.28 97.5343 14.6933 97.2409 14.24C96.9743 13.7867 96.4809 13.2933 95.7609 12.76L99.2409 9.72C100.601 10.4133 101.548 11.2133 102.081 12.12C102.614 13 102.881 14.24 102.881 15.84V22.44C102.881 23.3467 103.134 24.0667 103.641 24.6C104.174 25.1333 104.894 25.4 105.801 25.4C107.028 25.4 107.948 25 108.561 24.2C109.201 23.4 109.681 22.3467 110.001 21.04V10.2H115.201Z" fill="#31333B"/>
</svg>
