<svg width="46" height="46" fill="currentColor" viewBox="0 0 24 24" xmlns="http://www.w3.org/2000/svg">
  <path d="M3.12 4.92a1.8 1.8 0 0 1 1.8-1.8h3.6a1.8 1.8 0 0 1 1.8 1.8v3.6a1.8 1.8 0 0 1-1.8 1.8h-3.6a1.8 1.8 0 0 1-1.8-1.8v-3.6Zm9.6 0a1.8 1.8 0 0 1 1.8-1.8h3.6a1.8 1.8 0 0 1 1.8 1.8v3.6a1.8 1.8 0 0 1-1.8 1.8h-3.6a1.8 1.8 0 0 1-1.8-1.8v-3.6Zm-9.6 9.6a1.8 1.8 0 0 1 1.8-1.8h3.6a1.8 1.8 0 0 1 1.8 1.8v3.6a1.8 1.8 0 0 1-1.8 1.8h-3.6a1.8 1.8 0 0 1-1.8-1.8v-3.6Zm9.6 0a1.8 1.8 0 0 1 1.8-1.8h3.6a1.8 1.8 0 0 1 1.8 1.8v3.6a1.8 1.8 0 0 1-1.8 1.8h-3.6a1.8 1.8 0 0 1-1.8-1.8v-3.6Z"></path>
</svg>